<svg xmlns="http://www.w3.org/2000/svg" width="1920" height="1080" viewBox="0 0 1920 1080">
  <defs>
    <linearGradient id="bg" x1="0" y1="0" x2="1" y2="1">
      <stop offset="0" stop-color="#fff4f8"/><stop offset="0.45" stop-color="#ffdce9"/><stop offset="1" stop-color="#f8bfd5"/>
    </linearGradient>
    <radialGradient id="glow"><stop offset="0" stop-color="#fff" stop-opacity=".82"/><stop offset="1" stop-color="#fff" stop-opacity="0"/></radialGradient>
    <filter id="blur"><feGaussianBlur stdDeviation="12"/></filter>
  </defs>
  <rect width="1920" height="1080" fill="url(#bg)"/>
  <circle cx="250" cy="180" r="260" fill="url(#glow)"/><circle cx="1590" cy="780" r="350" fill="url(#glow)"/>
  <g fill="#e95488" opacity=".12">
    <path d="M150 210c-35-45-120-14-107 52 9 48 107 105 107 105s98-57 107-105c13-66-72-97-107-52z"/>
    <path d="M1515 145c-25-34-89-10-79 38 7 36 79 78 79 78s73-42 80-78c9-48-54-72-80-38z"/>
    <path d="M1710 815c-42-56-145-17-130 64 12 59 130 126 130 126s118-67 130-126c16-81-87-120-130-64z"/>
    <path d="M420 780c-22-29-77-9-68 33 6 31 68 68 68 68s62-37 68-68c9-42-46-62-68-33z"/>
  </g>
  <g opacity=".22" stroke="#cf6b92" stroke-width="3" fill="none">
    <path d="M310 110c-18 130 70 180 20 330"/><path d="M1640 95c25 155-70 220-18 370"/>
  </g>
  <g opacity=".42">
    <ellipse cx="310" cy="95" rx="50" ry="64" fill="#ff8fb6"/><path d="M302 157l8 14 9-14z" fill="#d75f8b"/>
    <ellipse cx="1640" cy="78" rx="55" ry="68" fill="#f6a5c3"/><path d="M1632 144l8 15 10-15z" fill="#d75f8b"/>
  </g>
  <g fill="#fff" opacity=".35" filter="url(#blur)">
    <ellipse cx="790" cy="980" rx="260" ry="72"/><ellipse cx="1100" cy="95" rx="210" ry="60"/>
  </g>
</svg>